<svg width="162" height="29" viewBox="0 0 162 29" fill="none" xmlns="http://www.w3.org/2000/svg">
<g clip-path="url(#clip0_464_13933)">
<path fill-rule="evenodd" clip-rule="evenodd" d="M30.2703 0.378906V22.3249H45.3444L45.7838 19.1277H34.0699V12.643H44.5589V9.44591H34.0699V3.57516H45.1872V0.378906H30.2703Z" fill="#ED1747"/>
<path fill-rule="evenodd" clip-rule="evenodd" d="M50.6318 7.14047C51.7656 6.41676 53.3017 6.05469 55.2423 6.05469C56.4268 6.05469 57.4272 6.19943 58.2448 6.48848C59.0612 6.77927 59.7255 7.19775 60.2357 7.7448C60.7463 8.29359 61.114 8.95477 61.3392 9.73007C61.5631 10.5054 61.6757 11.3791 61.6757 12.3507V22.6781H58.3367V20.5695C57.7438 21.2731 57.0292 21.8669 56.1921 22.3528C55.3545 22.8381 54.303 23.0817 53.0367 23.0817C52.281 23.0817 51.5764 22.9829 50.9229 22.7865C50.2689 22.5902 49.702 22.2955 49.2226 21.9028C48.7423 21.5101 48.3651 21.009 48.0892 20.399C47.8138 19.789 47.6757 19.0705 47.6757 18.2436C47.6757 17.1272 47.9151 16.2225 48.3954 15.5298C48.8748 14.8367 49.5032 14.2945 50.2797 13.9013C51.0554 13.5091 51.9336 13.2349 52.9137 13.0797C53.8946 12.9249 54.8946 12.8265 55.9162 12.7854L58.2752 12.6608V11.9782C58.2752 10.8001 57.9997 9.96796 57.448 9.48213C56.8962 8.99675 56.1206 8.75318 55.1193 8.75318C54.0167 8.75318 53.2047 8.93859 52.6846 9.31159C52.1636 9.68372 51.8215 10.2216 51.6582 10.9239L48.5024 10.5828C48.7887 9.01161 49.498 7.86418 50.6318 7.14047ZM51.7846 19.8383C52.2036 20.2448 52.8642 20.4487 53.7662 20.4487C55.0968 20.4487 56.1824 20.1093 57.0223 19.4313C57.8622 18.7529 58.2817 17.7559 58.2817 16.441V15.0948L56.0396 15.1893C55.0559 15.2316 54.2469 15.3296 53.6124 15.4872C52.9775 15.643 52.4755 15.8465 52.1077 16.0972C51.739 16.3479 51.4875 16.6498 51.3546 17.0051C51.2213 17.3599 51.1544 17.7559 51.1544 18.1941C51.1544 18.8831 51.3646 19.4313 51.7846 19.8383Z" fill="#ED1747"/>
<path fill-rule="evenodd" clip-rule="evenodd" d="M69.0379 6.39434C68.2302 6.62092 67.5361 6.94492 66.9545 7.3659C66.3725 7.78775 65.9178 8.29657 65.5913 8.89325C65.2643 9.48949 65.1015 10.1679 65.1015 10.9286C65.1015 11.6896 65.218 12.3376 65.4522 12.8721C65.6865 13.4066 66.0373 13.8641 66.5054 14.2442C66.974 14.6252 67.559 14.9335 68.2619 15.1697C68.9643 15.4067 69.7736 15.5967 70.69 15.7402L72.7972 16.1103C73.7746 16.2756 74.4207 16.5422 74.7364 16.9123C75.052 17.2824 75.2097 17.7351 75.2097 18.2692C75.2097 18.9276 74.9602 19.4369 74.4596 19.7965C73.9586 20.1566 73.1163 20.3362 71.9324 20.3362C70.8701 20.3362 69.9975 20.151 69.3129 19.7809C68.6286 19.4103 68.2056 18.7123 68.0423 17.6829H64.7026C64.7641 18.7123 65.0045 19.5699 65.4228 20.2588C65.8411 20.9481 66.3772 21.5035 67.0311 21.9249C67.6842 22.3463 68.4346 22.6438 69.2826 22.819C70.13 22.9934 71.0338 23.0817 71.9934 23.0817C74.2409 23.0817 75.9212 22.6286 77.0328 21.7244C78.1457 20.8194 78.7026 19.6473 78.7026 18.2078C78.7026 17.4672 78.6104 16.8197 78.4264 16.2652C78.2432 15.7094 77.9366 15.2266 77.5074 14.8152C77.0783 14.4038 76.5166 14.0589 75.8229 13.7815C75.1283 13.504 74.2708 13.2831 73.2493 13.1187L71.1052 12.7486C70.5535 12.6664 70.1101 12.569 69.7728 12.455C69.4363 12.3428 69.1652 12.2041 68.9608 12.0384C68.7564 11.8745 68.6187 11.6796 68.5468 11.4526C68.4758 11.2269 68.4403 10.9699 68.4403 10.682C68.4403 10.4354 68.4914 10.1992 68.5923 9.97223C68.6936 9.74652 68.8768 9.54081 69.1418 9.35554C69.406 9.16984 69.7463 9.02111 70.1629 8.90847C70.58 8.7954 71.1135 8.73843 71.7643 8.73843C72.9232 8.73843 73.752 8.93457 74.25 9.32467C74.748 9.71564 75.1192 10.3114 75.3634 11.1138L78.5186 10.682C78.396 10.0449 78.1964 9.44339 77.921 8.87716C77.646 8.31266 77.2472 7.82384 76.7266 7.412C76.2057 7.00146 75.5366 6.6718 74.7203 6.42522C73.9032 6.1782 72.8916 6.05469 71.6873 6.05469C70.7272 6.05469 69.8438 6.16863 69.0379 6.39434Z" fill="#ED1747"/>
<path fill-rule="evenodd" clip-rule="evenodd" d="M92.301 6.43286L88.2798 17.9588L83.8903 6.43286H79.8379L86.5609 21.8622L85.9772 23.3686C85.6708 24.1673 85.3432 24.7255 84.9956 25.044C84.6471 25.3608 84.1663 25.5199 83.5526 25.5199C83.2654 25.5199 82.969 25.4991 82.6617 25.4583C82.3553 25.4176 82.068 25.3456 81.8029 25.2429L81.158 27.9177C81.6896 28.0806 82.1809 28.199 82.6318 28.2705C83.0822 28.3424 83.5726 28.3788 84.1046 28.3788C84.8827 28.3788 85.5376 28.2705 86.0692 28.0559C86.6013 27.8406 87.0621 27.5225 87.4514 27.1025C87.8398 26.683 88.1826 26.1656 88.4795 25.5506C88.7759 24.9357 89.0883 24.2184 89.416 23.3989L96.1082 6.43286H92.301Z" fill="#ED1747"/>
<path d="M99.5135 22.3249V0.378906H113.969V2.14677H101.566V10.0717H112.761V11.8396H101.566V20.557H114.27V22.3249H99.5135ZM115.784 0.378906H131.676V2.14677H124.761V22.3249H122.699V2.14677H115.784V0.378906ZM133.568 22.3249V0.378906H147.568V2.14677H135.619V10.0717H146.481V11.8396H135.619V22.3249H133.568ZM151.326 16.9583C151.612 18.3202 152.127 19.2807 152.872 19.8398C153.617 20.3988 154.683 20.6783 156.07 20.6783C156.743 20.6783 157.325 20.597 157.814 20.4343C158.304 20.2717 158.707 20.0532 159.023 19.7788C159.34 19.5043 159.579 19.1943 159.742 18.8488C159.906 18.5032 159.987 18.1373 159.987 17.751C159.987 16.9786 159.737 16.4043 159.238 16.0282C158.738 15.6522 158.11 15.3574 157.355 15.144C156.6 14.9305 155.784 14.7476 154.907 14.5951C154.03 14.4427 153.214 14.214 152.459 13.9091C151.704 13.6041 151.076 13.1671 150.577 12.5979C150.077 12.0287 149.827 11.2258 149.827 10.189C149.827 8.8677 150.311 7.78524 151.28 6.94162C152.25 6.09801 153.622 5.6762 155.397 5.6762C157.111 5.6762 158.503 6.05735 159.574 6.81965C160.645 7.58196 161.293 8.85753 161.518 10.6464H159.651C159.487 9.42672 159.023 8.56787 158.258 8.06983C157.493 7.57179 156.529 7.32277 155.366 7.32277C154.203 7.32277 153.316 7.57179 152.704 8.06983C152.091 8.56787 151.785 9.22344 151.785 10.0366C151.785 10.748 152.035 11.2918 152.535 11.6679C153.035 12.044 153.662 12.3489 154.417 12.5826C155.172 12.8164 155.988 13.0248 156.866 13.2077C157.743 13.3907 158.559 13.6499 159.314 13.9853C160.069 14.3207 160.696 14.773 161.196 15.3422C161.696 15.9114 161.946 16.7041 161.946 17.7206C161.946 18.4727 161.783 19.1384 161.456 19.7178C161.13 20.2971 160.681 20.7799 160.11 21.1662C159.538 21.5524 158.86 21.8421 158.075 22.0352C157.289 22.2283 156.427 22.3249 155.489 22.3249C154.55 22.3249 153.719 22.1876 152.994 21.9132C152.27 21.6388 151.653 21.2576 151.143 20.7698C150.633 20.2819 150.235 19.7127 149.949 19.0622C149.664 18.4117 149.5 17.7104 149.459 16.9583H151.326Z" fill="#ED1747"/>
<path d="M21.0725 20.3091H3.82994C3.36045 20.3091 2.97986 20.6897 2.97986 21.1592V21.1991C2.97986 21.6686 3.36045 22.0492 3.82994 22.0492H21.0725C21.542 22.0492 21.9226 21.6686 21.9226 21.1991V21.1592C21.9226 20.6897 21.542 20.3091 21.0725 20.3091Z" fill="#ED1747"/>
<path fill-rule="evenodd" clip-rule="evenodd" d="M23.3434 11.002L21.9246 21.3356C21.8611 21.7979 21.4348 22.1212 20.9725 22.0578C20.9707 22.0575 20.969 22.0573 20.9672 22.057L20.9615 22.0562C20.4989 21.9896 20.1768 21.5621 20.2403 21.0991L21.6592 10.7655C21.7226 10.3032 22.1489 9.97992 22.6112 10.0434C22.613 10.0436 22.6148 10.0439 22.6166 10.0441L22.6222 10.045C23.0848 10.1115 23.407 10.539 23.3434 11.002Z" fill="#ED1747"/>
<path fill-rule="evenodd" clip-rule="evenodd" d="M1.49562 10.4603L2.9888 21.3354C3.05228 21.7977 3.47851 22.1211 3.94082 22.0576C3.94262 22.0573 3.94441 22.0571 3.9462 22.0568L3.95189 22.056C4.41449 21.9895 4.7366 21.562 4.67303 21.099L3.17985 10.2238C3.11637 9.76149 2.69014 9.43817 2.22783 9.50165C2.22603 9.50189 2.22424 9.50214 2.22245 9.5024L2.21676 9.50322C1.75416 9.56977 1.43205 9.99726 1.49562 10.4603Z" fill="#ED1747"/>
<path d="M24.0353 5.99048H0.867051C0.397563 5.99048 0.0169678 6.37107 0.0169678 6.84056V6.88049C0.0169678 7.34997 0.397563 7.73057 0.867051 7.73057H24.0353C24.5048 7.73057 24.8854 7.34997 24.8854 6.88049V6.84056C24.8854 6.37107 24.5048 5.99048 24.0353 5.99048Z" fill="#ED1747"/>
<path fill-rule="evenodd" clip-rule="evenodd" d="M7.30261 13.5524L7.30261 17.2715C7.30261 17.741 6.92206 18.1215 6.45262 18.1215C5.98318 18.1215 5.60262 17.741 5.60262 17.2715L5.60262 13.5524C5.60262 13.0829 5.98318 12.7024 6.45262 12.7024C6.92206 12.7024 7.30261 13.0829 7.30261 13.5524Z" fill="#46BAA5"/>
<path fill-rule="evenodd" clip-rule="evenodd" d="M10.3141 13.5524V17.2715C10.3141 17.741 9.93353 18.1215 9.46409 18.1215C8.99465 18.1215 8.6141 17.741 8.6141 17.2715V13.5524C8.6141 13.0829 8.99465 12.7024 9.46409 12.7024C9.93353 12.7024 10.3141 13.0829 10.3141 13.5524Z" fill="#46BAA5"/>
<path fill-rule="evenodd" clip-rule="evenodd" d="M13.3254 13.5524V17.2715C13.3254 17.741 12.9449 18.1215 12.4754 18.1215C12.006 18.1215 11.6254 17.741 11.6254 17.2715V13.5524C11.6254 13.0829 12.006 12.7024 12.4754 12.7024C12.9449 12.7024 13.3254 13.0829 13.3254 13.5524Z" fill="#F38A2F"/>
<path fill-rule="evenodd" clip-rule="evenodd" d="M16.3369 13.5524V17.2715C16.3369 17.741 15.9564 18.1215 15.4869 18.1215C15.0175 18.1215 14.6369 17.741 14.6369 17.2715V13.5524C14.6369 13.0829 15.0175 12.7024 15.4869 12.7024C15.9564 12.7024 16.3369 13.0829 16.3369 13.5524Z" fill="#4D318A"/>
<path fill-rule="evenodd" clip-rule="evenodd" d="M19.3483 13.5524V17.2715C19.3483 17.741 18.9677 18.1215 18.4983 18.1215C18.0288 18.1215 17.6483 17.741 17.6483 17.2715V13.5524C17.6483 13.0829 18.0288 12.7024 18.4983 12.7024C18.9677 12.7024 19.3483 13.0829 19.3483 13.5524Z" fill="#4D318A"/>
<path d="M14.1268 9.17236H0.867051C0.397563 9.17236 0.0169678 9.55296 0.0169678 10.0224V10.0624C0.0169678 10.5319 0.397563 10.9125 0.867051 10.9125H14.1268C14.5963 10.9125 14.9769 10.5319 14.9769 10.0624V10.0224C14.9769 9.55296 14.5963 9.17236 14.1268 9.17236Z" fill="#ED1747"/>
<path d="M24.0353 9.17236H19.1297C18.6603 9.17236 18.2797 9.55296 18.2797 10.0224V10.0624C18.2797 10.5319 18.6603 10.9125 19.1297 10.9125H24.0353C24.5047 10.9125 24.8853 10.5319 24.8853 10.0624V10.0224C24.8853 9.55296 24.5047 9.17236 24.0353 9.17236Z" fill="#ED1747"/>
<path fill-rule="evenodd" clip-rule="evenodd" d="M1.1063 2.3658L3.7255 7.00939C3.95286 7.41248 4.46394 7.55494 4.86703 7.32758C4.87195 7.32481 4.87683 7.32199 4.88169 7.31912L4.90059 7.30794C5.29902 7.07249 5.43588 6.56157 5.20852 6.15847L2.58932 1.51488C2.36196 1.11179 1.85088 0.969331 1.44779 1.19669C1.44287 1.19946 1.43799 1.20228 1.43313 1.20515L1.41423 1.21633C1.0158 1.45178 0.878935 1.9627 1.1063 2.3658Z" fill="#ED1747"/>
<path fill-rule="evenodd" clip-rule="evenodd" d="M23.617 2.3658L20.9978 7.00939C20.7704 7.41248 20.2593 7.55494 19.8562 7.32758C19.8513 7.32481 19.8464 7.32199 19.8416 7.31912L19.8227 7.30794C19.4242 7.07248 19.2874 6.56157 19.5147 6.15847L22.1339 1.51488C22.3613 1.11179 22.8724 0.969331 23.2755 1.19669C23.2804 1.19946 23.2853 1.20228 23.2901 1.20515L23.309 1.21633C23.7075 1.45178 23.8443 1.9627 23.617 2.3658Z" fill="#ED1747"/>
<path fill-rule="evenodd" clip-rule="evenodd" d="M24.8854 6.84047V10.0625C24.8854 10.5319 24.5048 10.9124 24.0354 10.9124C23.5659 10.9124 23.1854 10.5319 23.1854 10.0625V6.84047C23.1854 6.37103 23.5659 5.99048 24.0354 5.99048C24.5048 5.99048 24.8854 6.37103 24.8854 6.84047Z" fill="#ED1747"/>
<path fill-rule="evenodd" clip-rule="evenodd" d="M1.71692 6.84047L1.71692 10.0625C1.71692 10.5319 1.33636 10.9124 0.866924 10.9124C0.397485 10.9124 0.016929 10.5319 0.016929 10.0625L0.016929 6.84047C0.016929 6.37103 0.397485 5.99048 0.866924 5.99048C1.33636 5.99048 1.71692 6.37103 1.71692 6.84047Z" fill="#ED1747"/>
<path d="M16.7012 10.9125C17.1706 10.9125 17.5512 10.5229 17.5512 10.0424C17.5512 9.5619 17.1706 9.17236 16.7012 9.17236C16.2318 9.17236 15.8512 9.5619 15.8512 10.0424C15.8512 10.5229 16.2318 10.9125 16.7012 10.9125Z" fill="#ED1747"/>
</g>
<defs>
<clipPath id="clip0_464_13933">
<rect width="161.946" height="28" fill="white" transform="translate(0 0.378906)"/>
</clipPath>
</defs>
</svg>
