<svg width="193" height="27" viewBox="0 0 193 27" fill="none" xmlns="http://www.w3.org/2000/svg">
<path d="M2.55305 0H2.54833C2.01924 0 1.59033 0.42891 1.59033 0.957998V20.302C1.59033 20.8311 2.01924 21.26 2.54833 21.26H2.55305C3.08214 21.26 3.51105 20.8311 3.51105 20.302V0.957998C3.51105 0.42891 3.08214 0 2.55305 0Z" fill="white"/>
<path d="M18.7069 0H18.7021C18.1731 0 17.7441 0.42891 17.7441 0.957998V20.302C17.7441 20.8311 18.1731 21.26 18.7021 21.26H18.7069C19.2359 21.26 19.6649 20.8311 19.6649 20.302V0.957998C19.6649 0.42891 19.2359 0 18.7069 0Z" fill="white"/>
<path d="M21.26 19.7994V19.6602C21.26 18.8601 20.6114 18.2114 19.8112 18.2114H1.4488C0.648657 18.2114 9.53674e-06 18.8601 9.53674e-06 19.6602V19.7994C9.53674e-06 20.5996 0.648657 21.2482 1.4488 21.2482H19.8112C20.6114 21.2482 21.26 20.5996 21.26 19.7994Z" fill="white"/>
<path d="M19.6578 2.82212V1.09961L1.59745 1.09961V2.82212L19.6578 2.82212Z" fill="white"/>
<path d="M19.0419 5.39648H2.45632C2.25823 5.39648 2.09766 5.55706 2.09766 5.75514V5.79762C2.09766 5.9957 2.25823 6.15628 2.45632 6.15628H19.0419C19.24 6.15628 19.4006 5.9957 19.4006 5.79762V5.75514C19.4006 5.55706 19.24 5.39648 19.0419 5.39648Z" fill="white"/>
<path d="M19.0419 9.93164H2.45632C2.25823 9.93164 2.09766 10.0922 2.09766 10.2903V10.3328C2.09766 10.5309 2.25823 10.6914 2.45632 10.6914H19.0419C19.24 10.6914 19.4006 10.5309 19.4006 10.3328V10.2903C19.4006 10.0922 19.24 9.93164 19.0419 9.93164Z" fill="white"/>
<path d="M19.0419 14.4644H2.45632C2.25823 14.4644 2.09766 14.6249 2.09766 14.823V14.8655C2.09766 15.0636 2.25823 15.2241 2.45632 15.2241H19.0419C19.24 15.2241 19.4006 15.0636 19.4006 14.8655V14.823C19.4006 14.6249 19.24 14.4644 19.0419 14.4644Z" fill="white"/>
<path d="M5.88282 4.29688H5.8781C5.0543 4.29688 4.38647 4.9647 4.38647 5.7885V5.79322C4.38647 6.61702 5.0543 7.28484 5.8781 7.28484H5.88282C6.70662 7.28484 7.37444 6.61702 7.37444 5.79322V5.7885C7.37444 4.9647 6.70662 4.29688 5.88282 4.29688Z" fill="white"/>
<path d="M9.37732 4.29688H9.3726C8.5488 4.29688 7.88098 4.9647 7.88098 5.7885V5.79322C7.88098 6.61702 8.5488 7.28484 9.3726 7.28484H9.37732C10.2011 7.28484 10.8689 6.61702 10.8689 5.79322V5.7885C10.8689 4.9647 10.2011 4.29688 9.37732 4.29688Z" fill="white"/>
<path d="M12.8743 4.29688H12.8696C12.0458 4.29688 11.3779 4.9647 11.3779 5.7885V5.79322C11.3779 6.61702 12.0458 7.28484 12.8696 7.28484H12.8743C13.6981 7.28484 14.3659 6.61702 14.3659 5.79322V5.7885C14.3659 4.9647 13.6981 4.29688 12.8743 4.29688Z" fill="white"/>
<path d="M5.88282 13.353H5.8781C5.0543 13.353 4.38647 14.0208 4.38647 14.8446V14.8494C4.38647 15.6732 5.0543 16.341 5.8781 16.341H5.88282C6.70662 16.341 7.37444 15.6732 7.37444 14.8494V14.8446C7.37444 14.0208 6.70662 13.353 5.88282 13.353Z" fill="white"/>
<path d="M10.8666 14.8423C10.8666 14.0198 10.1998 13.353 9.37732 13.353C8.55483 13.353 7.88806 14.0198 7.88806 14.8423V14.8517C7.88806 15.6742 8.55483 16.341 9.37732 16.341C10.1998 16.341 10.8666 15.6742 10.8666 14.8517V14.8423Z" fill="white"/>
<path d="M12.8743 13.353H12.8696C12.0458 13.353 11.3779 14.0208 11.3779 14.8446V14.8494C11.3779 15.6732 12.0458 16.341 12.8696 16.341H12.8743C13.6981 16.341 14.3659 15.6732 14.3659 14.8494V14.8446C14.3659 14.0208 13.6981 13.353 12.8743 13.353Z" fill="white"/>
<path d="M5.88282 8.84619H5.8781C5.0543 8.84619 4.38647 9.51401 4.38647 10.3378V10.3425C4.38647 11.1663 5.0543 11.8342 5.8781 11.8342H5.88282C6.70662 11.8342 7.37444 11.1663 7.37444 10.3425V10.3378C7.37444 9.51401 6.70662 8.84619 5.88282 8.84619Z" fill="white"/>
<path d="M9.37732 8.84619H9.3726C8.5488 8.84619 7.88098 9.51401 7.88098 10.3378V10.3425C7.88098 11.1663 8.5488 11.8342 9.3726 11.8342H9.37732C10.2011 11.8342 10.8689 11.1663 10.8689 10.3425V10.3378C10.8689 9.51401 10.2011 8.84619 9.37732 8.84619Z" fill="white"/>
<path d="M15.3093 8.84619H15.3046C14.4808 8.84619 13.813 9.51401 13.813 10.3378V10.3425C13.813 11.1663 14.4808 11.8342 15.3046 11.8342H15.3093C16.1331 11.8342 16.8009 11.1663 16.8009 10.3425V10.3378C16.8009 9.51401 16.1331 8.84619 15.3093 8.84619Z" fill="white"/>
<path d="M191.164 14.4608C190.39 13.7905 189.215 13.3185 187.645 13.047C186.185 12.7402 183.822 12.6623 182.729 11.7065C181.806 10.7789 181.976 8.92149 183.034 8.11904C184.235 7.18441 186.524 7.16317 187.995 7.47707C189.352 7.76973 190.053 8.75156 190.468 10.0142L192.009 9.69326C191.372 6.80915 189.073 5.78956 186.163 5.84384C184.138 5.85092 181.957 6.48581 180.957 8.30785C180.164 9.82307 180.409 12.0629 181.849 13.0612C182.902 13.8188 184.218 14.0714 185.597 14.3286C187.261 14.6661 189.932 14.626 190.468 16.5306C191.072 19.0466 189.364 20.465 186.6 20.3659C183.994 20.3211 182.3 19.7546 181.799 17.1561H180.112C180.268 19.4974 181.882 21.0645 184.112 21.5318C186.253 22.0039 189.147 21.9472 190.891 20.5547C192.772 19.2283 192.748 15.766 191.167 14.4584L191.164 14.4608Z" fill="white"/>
<path d="M32.6797 12.0841H42.4767V9.06071H32.6797V3.50725H43.062V0.483887H29.13V21.2415H43.2084L43.619 18.2181H32.6797V12.0841Z" fill="white"/>
<path d="M57.4424 7.2859C56.2152 6.03973 54.6173 5.71167 52.7009 5.69751C49.3943 5.73527 46.9303 6.65809 46.3025 9.95524L49.2999 10.2762C49.7271 8.66895 50.7939 8.24884 52.5876 8.23468C53.5387 8.23468 54.2751 8.46362 54.7991 8.91913C55.323 9.377 55.585 10.1582 55.585 11.2675V11.9094C52.4271 12.1714 48.2709 11.7702 46.2034 14.6071C45.0823 16.238 45.3112 19.3369 46.9893 20.5996C48.6839 21.9826 51.8229 22.0298 53.6072 21.022C54.4026 20.5642 55.0799 20.0072 55.644 19.344V21.3265H58.8161V11.6144C58.7972 9.96704 58.5328 8.44474 57.4495 7.28354L57.4424 7.2859ZM55.5803 15.4096C55.6133 17.942 53.6922 19.1457 51.3037 19.1433C50.4493 19.1433 49.8239 18.9522 49.4273 18.5745C48.5328 17.7131 48.6107 15.7966 49.7318 15.0886C51.1998 14.1374 53.7323 14.2649 55.5803 14.1563V15.4096Z" fill="white"/>
<path d="M73.6733 13.9792C72.2242 12.5868 69.6139 12.405 67.5936 12.025C66.5787 11.8315 65.5591 11.7418 65.165 10.8001C64.9525 10.1109 65.0328 9.25185 65.729 8.81758C66.8548 8.01984 69.6139 8.03873 70.5792 8.78926C71.0512 9.15744 71.4052 9.72152 71.6365 10.4815L74.6316 10.0732C74.3011 8.08357 73.0715 6.58251 71.0252 6.04911C68.8728 5.44491 65.5591 5.52988 63.6521 6.93889C61.974 8.02928 61.4713 10.3965 62.2266 12.1454C63.0927 14.0477 65.198 14.5126 67.1994 14.8572C68.1647 15.0602 70.5485 15.2632 71.0418 15.9641C71.705 16.7052 71.6507 18.1308 70.7798 18.6901C70.3054 19.03 69.5053 19.1999 68.3795 19.1999C66.4772 19.1551 64.9974 18.7538 64.6858 16.6911H61.5138C61.5964 19.3014 63.4161 21.0786 65.8636 21.5483C68.1199 22.0581 71.7994 21.8244 73.2225 20.5122C74.2799 19.6578 74.8086 18.5485 74.8086 17.1867C74.7944 15.9004 74.5726 14.8454 73.6733 13.9792Z" fill="white"/>
<path d="M83.9424 17.0995L79.7838 6.16248H75.9438L82.3139 20.8025C81.3014 23.4483 81.0111 24.9493 77.8036 24.01L77.1924 26.5472C79.9774 27.3921 82.8402 27.2694 84.1312 24.3027C84.5348 23.6654 90.8671 7.352 91.3604 6.16248H87.7541L83.9424 17.0995Z" fill="white"/>
<path d="M95.6936 11.4138H106.399V9.74987H95.6936V2.07935H106.982V0.505127H93.9495V21.3288H107.07L107.476 19.6956H95.6936V11.4138Z" fill="white"/>
<path d="M121.382 8.35031C119.113 5.01541 113.905 5.10745 111.589 7.98449C110.4 9.41475 109.805 11.4114 109.805 13.9769C109.803 16.7784 110.735 19.8042 113.331 21.1518C114.905 22.0322 117.676 22.0109 119.194 21.0645C120.015 20.5783 120.744 19.9175 121.384 19.082V26.9861H123.13V6.30878H121.384V8.35031H121.382ZM121.469 14.5339C121.551 17.123 120.253 19.3746 117.886 20.1346C116.293 20.5736 114.285 20.3635 113.114 18.9828C111.075 16.6935 111.094 11.1801 113.012 8.81763C114.556 6.9531 117.601 6.80913 119.465 8.29367C121.592 9.74753 121.492 12.1667 121.466 14.5363L121.469 14.5339Z" fill="white"/>
<path d="M137.35 15.1168C137.35 16.9058 136.852 17.7437 135.635 18.8789C134.124 20.3328 130.867 20.9724 129.569 19.2448C129.073 18.5532 128.826 17.4227 128.826 15.8461V6.30872H127.138V16.3134C127.138 18.1024 127.506 19.4642 128.243 20.3965C128.979 21.3288 130.202 21.7961 131.908 21.7961C133.964 21.7961 135.776 20.8237 137.348 18.8789V21.3288H139.036V6.30872H137.348V15.1168H137.35Z" fill="white"/>
<path d="M144.884 6.30872H143.197V21.3288H144.884V6.30872Z" fill="white"/>
<path d="M145 0.505127H143.081V3.0423H145V0.505127Z" fill="white"/>
<path d="M155.88 19.8135C153.973 20.4201 151.88 20.649 151.606 18.093C151.585 17.9183 151.573 17.7366 151.573 17.5454V7.73896H155.819V6.30871H151.573V2.16663H149.885V6.30871H147.558V7.73896H149.885C149.892 8.12367 149.869 17.2126 149.902 17.2268C149.869 19.0229 150.36 21.1565 152.38 21.5412C153.605 21.7796 155.094 21.6403 156.227 21.1848L155.878 19.8135H155.88Z" fill="white"/>
<path d="M160.416 6.30872H158.729V21.3288H160.416V6.30872Z" fill="white"/>
<path d="M160.532 0.505127H158.613V3.0423H160.532V0.505127Z" fill="white"/>
<path d="M175.878 7.95621C174.214 5.77306 170.704 5.32699 168.198 6.36782C165.25 7.63523 164.082 10.7908 164.11 13.9793C164.084 18.4802 166.338 21.8103 170.917 21.7962C174.186 21.8339 176.491 20.3943 177.084 17.3921H175.455C175.125 18.7563 174.263 19.7948 172.845 20.1512C171.707 20.4651 169.819 20.4887 168.726 19.8892C166.631 18.8649 165.847 16.4953 165.857 14.2437H177.346C177.395 12.07 177.24 9.65552 175.878 7.95857V7.95621ZM165.885 12.7827C166.192 9.43367 167.641 7.25524 170.931 7.21276C174.299 7.13487 175.649 9.73813 175.602 12.7827H165.885Z" fill="white"/>
</svg>
