<svg width="192" height="27" viewBox="0 0 192 27" fill="none" xmlns="http://www.w3.org/2000/svg">
<g clip-path="url(#clip0_25_1408)">
<path d="M2.55334 0H2.54862C2.01947 0 1.59052 0.428968 1.59052 0.958127V20.3047C1.59052 20.8339 2.01947 21.2629 2.54862 21.2629H2.55334C3.08249 21.2629 3.51144 20.8339 3.51144 20.3047V0.958127C3.51144 0.428968 3.08249 0 2.55334 0Z" fill="#ED1747"/>
<path d="M18.7089 0H18.7041C18.175 0 17.746 0.428968 17.746 0.958127V20.3047C17.746 20.8339 18.175 21.2629 18.7041 21.2629H18.7089C19.238 21.2629 19.667 20.8339 19.667 20.3047V0.958127C19.667 0.428968 19.238 0 18.7089 0Z" fill="#ED1747"/>
<path d="M21.2624 19.8021V19.6629C21.2624 18.8626 20.6137 18.2139 19.8134 18.2139H1.44898C0.648748 18.2139 2.86102e-05 18.8626 2.86102e-05 19.6629V19.8021C2.86102e-05 20.6023 0.648748 21.2511 1.44898 21.2511H19.8134C20.6137 21.2511 21.2624 20.6023 21.2624 19.8021Z" fill="#ED1747"/>
<path d="M19.66 2.82247V1.09973L1.59764 1.09973V2.82247L19.66 2.82247Z" fill="#ED1747"/>
<path d="M19.0441 5.39716H2.45666C2.25856 5.39716 2.09796 5.55775 2.09796 5.75586V5.79834C2.09796 5.99645 2.25856 6.15705 2.45666 6.15705H19.0441C19.2422 6.15705 19.4028 5.99645 19.4028 5.79834V5.75586C19.4028 5.55775 19.2422 5.39716 19.0441 5.39716Z" fill="#ED1747"/>
<path d="M19.0441 9.93292H2.45666C2.25856 9.93292 2.09796 10.0935 2.09796 10.2916V10.3341C2.09796 10.5322 2.25856 10.6928 2.45666 10.6928H19.0441C19.2422 10.6928 19.4028 10.5322 19.4028 10.3341V10.2916C19.4028 10.0935 19.2422 9.93292 19.0441 9.93292Z" fill="#ED1747"/>
<path d="M19.0441 14.4663H2.45666C2.25856 14.4663 2.09796 14.6269 2.09796 14.825V14.8675C2.09796 15.0656 2.25856 15.2262 2.45666 15.2262H19.0441C19.2422 15.2262 19.4028 15.0656 19.4028 14.8675V14.825C19.4028 14.6269 19.2422 14.4663 19.0441 14.4663Z" fill="#ED1747"/>
<path d="M5.88318 4.29742H5.87846C5.05476 4.29742 4.38702 4.96518 4.38702 5.78889V5.79361C4.38702 6.61733 5.05476 7.28508 5.87846 7.28508H5.88318C6.70687 7.28508 7.37461 6.61733 7.37461 5.79361V5.78889C7.37461 4.96518 6.70687 4.29742 5.88318 4.29742Z" fill="#50E3C2"/>
<path d="M9.37811 4.29742H9.37339C8.5497 4.29742 7.88196 4.96518 7.88196 5.78889V5.79361C7.88196 6.61733 8.5497 7.28508 9.37339 7.28508H9.37811C10.2018 7.28508 10.8695 6.61733 10.8695 5.79361V5.78889C10.8695 4.96518 10.2018 4.29742 9.37811 4.29742Z" fill="#50E3C2"/>
<path d="M12.8754 4.29742H12.8707C12.047 4.29742 11.3793 4.96518 11.3793 5.78889V5.79361C11.3793 6.61733 12.047 7.28508 12.8707 7.28508H12.8754C13.6991 7.28508 14.3669 6.61733 14.3669 5.79361V5.78889C14.3669 4.96518 13.6991 4.29742 12.8754 4.29742Z" fill="#50E3C2"/>
<path d="M5.88318 13.3548H5.87846C5.05476 13.3548 4.38702 14.0226 4.38702 14.8463V14.851C4.38702 15.6747 5.05476 16.3425 5.87846 16.3425H5.88318C6.70687 16.3425 7.37461 15.6747 7.37461 14.851V14.8463C7.37461 14.0226 6.70687 13.3548 5.88318 13.3548Z" fill="#5308B2"/>
<path d="M10.8672 14.8439C10.8672 14.0215 10.2006 13.3548 9.37817 13.3548C8.55578 13.3548 7.8891 14.0215 7.8891 14.8439V14.8533C7.8891 15.6758 8.55578 16.3425 9.37817 16.3425C10.2006 16.3425 10.8672 15.6758 10.8672 14.8533V14.8439Z" fill="#5308B2"/>
<path d="M12.8754 13.3548H12.8707C12.047 13.3548 11.3793 14.0226 11.3793 14.8463V14.851C11.3793 15.6747 12.047 16.3425 12.8707 16.3425H12.8754C13.6991 16.3425 14.3669 15.6747 14.3669 14.851V14.8463C14.3669 14.0226 13.6991 13.3548 12.8754 13.3548Z" fill="#5308B2"/>
<path d="M5.88318 8.84735H5.87846C5.05476 8.84735 4.38702 9.5151 4.38702 10.3388V10.3435C4.38702 11.1673 5.05476 11.835 5.87846 11.835H5.88318C6.70687 11.835 7.37461 11.1673 7.37461 10.3435V10.3388C7.37461 9.5151 6.70687 8.84735 5.88318 8.84735Z" fill="#F4942A"/>
<path d="M9.37811 8.84735H9.37339C8.5497 8.84735 7.88196 9.5151 7.88196 10.3388V10.3435C7.88196 11.1673 8.5497 11.835 9.37339 11.835H9.37811C10.2018 11.835 10.8695 11.1673 10.8695 10.3435V10.3388C10.8695 9.5151 10.2018 8.84735 9.37811 8.84735Z" fill="#F4942A"/>
<path d="M15.3108 8.84735H15.3061C14.4824 8.84735 13.8147 9.5151 13.8147 10.3388V10.3435C13.8147 11.1673 14.4824 11.835 15.3061 11.835H15.3108C16.1345 11.835 16.8023 11.1673 16.8023 10.3435V10.3388C16.8023 9.5151 16.1345 8.84735 15.3108 8.84735Z" fill="#F4942A"/>
<path d="M190.374 14.4592C189.604 13.789 188.434 13.317 186.873 13.0456C185.419 12.7389 183.068 12.661 181.98 11.7052C181.062 10.7778 181.231 8.9205 182.283 8.11813C183.479 7.1836 185.757 7.16236 187.22 7.47623C188.571 7.76886 189.268 8.75059 189.682 10.0131L191.215 9.6922C190.581 6.80838 188.294 5.78889 185.398 5.84317C183.383 5.85025 181.212 6.48507 180.217 8.30693C179.428 9.82199 179.672 12.0616 181.104 13.0598C182.152 13.8173 183.462 14.0698 184.834 14.3271C186.49 14.6645 189.148 14.6244 189.682 16.5289C190.283 19.0446 188.582 20.4629 185.832 20.3637C183.239 20.3189 181.553 19.7525 181.055 17.1543H179.376C179.531 19.4953 181.137 21.0623 183.357 21.5295C185.487 22.0015 188.366 21.9449 190.102 20.5525C191.974 19.2263 191.95 15.7643 190.377 14.4569L190.374 14.4592Z" fill="#ED1747"/>
<path d="M32.6646 12.0828H42.4137V9.05974H32.6646V3.50685H42.9962V0.483795H29.1323V21.2393H43.1418L43.5504 18.2162H32.6646V12.0828Z" fill="#ED1747"/>
<path d="M57.3063 7.28509C56.085 6.03906 54.495 5.71103 52.5879 5.69687C49.2975 5.73463 46.8455 6.65736 46.2208 9.95416L49.2036 10.2751C49.6287 8.66801 50.6902 8.24794 52.4752 8.23378C53.4217 8.23378 54.1545 8.46269 54.6758 8.91816C55.1972 9.37598 55.4579 10.1571 55.4579 11.2663V11.9082C52.3155 12.1701 48.1796 11.7689 46.1222 14.6056C45.0066 16.2363 45.2344 19.3348 46.9043 20.5974C48.5906 21.9803 51.7142 22.0275 53.4898 21.0198C54.2813 20.562 54.9553 20.0051 55.5167 19.3419V21.3242H58.6732V11.6132C58.6544 9.96596 58.3914 8.44381 57.3133 7.28273L57.3063 7.28509ZM55.4532 15.4079C55.4861 17.9401 53.5743 19.1437 51.1975 19.1413C50.3473 19.1413 49.725 18.9502 49.3304 18.5726C48.4403 17.7112 48.5178 15.795 49.6334 15.087C51.0942 14.1359 53.6143 14.2634 55.4532 14.1548V15.4079Z" fill="#ED1747"/>
<path d="M73.4578 13.9778C72.0157 12.5855 69.4181 12.4038 67.4077 12.0238C66.3978 11.8303 65.3832 11.7406 64.991 10.799C64.7796 10.1099 64.8595 9.2509 65.5523 8.81668C66.6726 8.01903 69.4181 8.03791 70.3787 8.78836C70.8484 9.15651 71.2007 9.72053 71.4309 10.4804L74.4113 10.0722C74.0825 8.08274 72.8589 6.58184 70.8226 6.04849C68.6807 5.44435 65.3832 5.52931 63.4855 6.93818C61.8156 8.02847 61.3154 10.3955 62.0669 12.1442C62.9289 14.0463 65.0239 14.5112 67.0155 14.8557C67.9761 15.0587 70.3482 15.2616 70.839 15.9625C71.499 16.7035 71.445 18.1289 70.5784 18.6882C70.1063 19.028 69.3101 19.198 68.1898 19.198C66.2968 19.1531 64.8242 18.7519 64.5142 16.6894H61.3577C61.4399 19.2994 63.2507 21.0765 65.6862 21.5461C67.9315 22.0558 71.593 21.8222 73.0092 20.5101C74.0614 19.6558 74.5874 18.5466 74.5874 17.1849C74.5733 15.8988 74.3526 14.8439 73.4578 13.9778Z" fill="#ED1747"/>
<path d="M83.6766 17.0976L79.5384 6.16177H75.7172L82.0561 20.8003C81.0485 23.4458 80.7596 24.9467 77.5679 24.0075L76.9596 26.5444C79.731 27.3892 82.5798 27.2665 83.8645 24.3001C84.2661 23.6629 90.5675 7.35117 91.0583 6.16177H87.4697L83.6766 17.0976Z" fill="#ED1747"/>
<path d="M95.3704 11.4126H106.024V9.74883H95.3704V2.0791H106.604V0.505035H93.6348V21.3266H106.691L107.095 19.6935H95.3704V11.4126Z" fill="#ED1747"/>
<path d="M120.933 8.34942C118.676 5.01485 113.492 5.10689 111.188 7.98363C110.005 9.41374 109.413 11.4102 109.413 13.9755C109.41 16.7767 110.338 19.8021 112.922 21.1496C114.488 22.0299 117.245 22.0086 118.756 21.0623C119.573 20.5762 120.299 19.9154 120.935 19.08V26.9833H122.673V6.30809H120.935V8.34942H120.933ZM121.02 14.5324C121.102 17.1212 119.81 19.3726 117.454 20.1325C115.869 20.5714 113.87 20.3614 112.706 18.9808C110.676 16.6917 110.695 11.179 112.605 8.81668C114.141 6.95234 117.17 6.80839 119.026 8.29278C121.142 9.74649 121.043 12.1654 121.017 14.5348L121.02 14.5324Z" fill="#ED1747"/>
<path d="M136.824 15.1153C136.824 16.9041 136.328 17.7419 135.116 18.877C133.613 20.3307 130.372 20.9702 129.08 19.2428C128.587 18.5513 128.34 17.4209 128.34 15.8445V6.30807H126.661V16.3118C126.661 18.1006 127.027 19.4623 127.76 20.3944C128.493 21.3266 129.71 21.7939 131.408 21.7939C133.453 21.7939 135.257 20.8216 136.821 18.877V21.3266H138.5V6.30807H136.821V15.1153H136.824Z" fill="#ED1747"/>
<path d="M144.32 6.30807H142.641V21.3266H144.32V6.30807Z" fill="#ED1747"/>
<path d="M144.435 0.505035H142.526V3.04195H144.435V0.505035Z" fill="#ED1747"/>
<path d="M155.263 19.8115C153.365 20.418 151.282 20.6469 151.009 18.0911C150.988 17.9165 150.976 17.7348 150.976 17.5436V7.73818H155.201V6.30807H150.976V2.16641H149.297V6.30807H146.981V7.73818H149.297C149.304 8.12285 149.281 17.2109 149.314 17.225C149.281 19.0209 149.769 21.1543 151.78 21.539C152.998 21.7773 154.48 21.6381 155.608 21.1826L155.26 19.8115H155.263Z" fill="#ED1747"/>
<path d="M159.777 6.30807H158.097V21.3266H159.777V6.30807Z" fill="#ED1747"/>
<path d="M159.892 0.505035H157.982V3.04195H159.892V0.505035Z" fill="#ED1747"/>
<path d="M175.162 7.95529C173.507 5.77237 170.014 5.32634 167.52 6.36707C164.587 7.63434 163.424 10.7896 163.452 13.9778C163.426 18.4782 165.669 21.808 170.226 21.7938C173.478 21.8316 175.773 20.3921 176.363 17.3902H174.742C174.413 18.7543 173.556 19.7926 172.144 20.149C171.012 20.4629 169.134 20.4865 168.046 19.887C165.961 18.8628 165.181 16.4935 165.19 14.2421H176.623C176.673 12.0686 176.518 9.65443 175.162 7.95765V7.95529ZM165.218 12.7813C165.524 9.4326 166.966 7.25439 170.24 7.21192C173.591 7.13404 174.935 9.73703 174.888 12.7813H165.218Z" fill="#ED1747"/>
</g>
<defs>
<clipPath id="clip0_25_1408">
<rect width="192" height="27" fill="white"/>
</clipPath>
</defs>
</svg>
