<svg width="30" height="30" viewBox="0 0 30 30" fill="none" xmlns="http://www.w3.org/2000/svg">
<path d="M3.60097 0H3.59706C2.84986 0 2.24414 0.605723 2.24414 1.35292V28.6471C2.24414 29.3943 2.84986 30 3.59706 30H3.60097C4.34817 30 4.95389 29.3943 4.95389 28.6471V1.35292C4.95389 0.605723 4.34817 0 3.60097 0Z" fill="white"/>
<path d="M26.3971 0H26.3932C25.646 0 25.0403 0.605723 25.0403 1.35292V28.6471C25.0403 29.3943 25.646 30 26.3932 30H26.3971C27.1443 30 27.75 29.3943 27.75 28.6471V1.35292C27.75 0.605723 27.1443 0 26.3971 0Z" fill="white"/>
<path d="M30 27.9417V27.7451C30 26.6159 29.0846 25.7006 27.9555 25.7006H2.04454C0.915373 25.7006 1.90735e-06 26.6159 1.90735e-06 27.7451V27.9417C1.90735e-06 29.0709 0.915373 29.9863 2.04454 29.9863H27.9555C29.0846 29.9863 30 29.0709 30 27.9417Z" fill="white"/>
<path d="M27.7422 3.97953V1.55054L2.25681 1.55054V3.97953L27.7422 3.97953Z" fill="white"/>
<path d="M26.8706 7.6167H3.46498C3.1862 7.6167 2.96021 7.8427 2.96021 8.12148V8.18506C2.96021 8.46384 3.1862 8.68984 3.46498 8.68984H26.8706C27.1494 8.68984 27.3754 8.46384 27.3754 8.18506V8.12148C27.3754 7.8427 27.1494 7.6167 26.8706 7.6167Z" fill="white"/>
<path d="M26.8706 14.0125H3.46498C3.1862 14.0125 2.96021 14.2384 2.96021 14.5172V14.5808C2.96021 14.8596 3.1862 15.0856 3.46498 15.0856H26.8706C27.1494 15.0856 27.3754 14.8596 27.3754 14.5808V14.5172C27.3754 14.2384 27.1494 14.0125 26.8706 14.0125Z" fill="white"/>
<path d="M26.8706 20.4093H3.46498C3.1862 20.4093 2.96021 20.6353 2.96021 20.9141V20.9777C2.96021 21.2564 3.1862 21.4824 3.46498 21.4824H26.8706C27.1494 21.4824 27.3754 21.2564 27.3754 20.9777V20.9141C27.3754 20.6353 27.1494 20.4093 26.8706 20.4093Z" fill="white"/>
<path d="M8.3015 6.06226H8.29367C7.13154 6.06226 6.18945 7.00435 6.18945 8.16647V8.1743C6.18945 9.33642 7.13154 10.2785 8.29367 10.2785H8.3015C9.46362 10.2785 10.4057 9.33642 10.4057 8.1743V8.16647C10.4057 7.00435 9.46362 6.06226 8.3015 6.06226Z" fill="white"/>
<path d="M13.2339 6.06226H13.226C12.0639 6.06226 11.1218 7.00435 11.1218 8.16647V8.1743C11.1218 9.33642 12.0639 10.2785 13.226 10.2785H13.2339C14.396 10.2785 15.3381 9.33642 15.3381 8.1743V8.16647C15.3381 7.00435 14.396 6.06226 13.2339 6.06226Z" fill="white"/>
<path d="M18.1672 6.06226H18.1594C16.9973 6.06226 16.0552 7.00435 16.0552 8.16647V8.1743C16.0552 9.33642 16.9973 10.2785 18.1594 10.2785H18.1672C19.3293 10.2785 20.2714 9.33642 20.2714 8.1743V8.16647C20.2714 7.00435 19.3293 6.06226 18.1672 6.06226Z" fill="white"/>
<path d="M8.3015 18.8431H8.29367C7.13154 18.8431 6.18945 19.7852 6.18945 20.9474V20.9552C6.18945 22.1173 7.13154 23.0594 8.29367 23.0594H8.3015C9.46362 23.0594 10.4057 22.1173 10.4057 20.9552V20.9474C10.4057 19.7852 9.46362 18.8431 8.3015 18.8431Z" fill="white"/>
<path d="M15.3302 20.9434C15.3302 19.7835 14.3899 18.8431 13.2299 18.8431C12.07 18.8431 11.1296 19.7835 11.1296 20.9434V20.9591C11.1296 22.1191 12.07 23.0594 13.2299 23.0594C14.3899 23.0594 15.3302 22.1191 15.3302 20.9591V20.9434Z" fill="white"/>
<path d="M18.1672 18.8431H18.1594C16.9973 18.8431 16.0552 19.7852 16.0552 20.9474V20.9552C16.0552 22.1173 16.9973 23.0594 18.1594 23.0594H18.1672C19.3293 23.0594 20.2714 22.1173 20.2714 20.9552V20.9474C20.2714 19.7852 19.3293 18.8431 18.1672 18.8431Z" fill="white"/>
<path d="M8.3015 12.4825H8.29367C7.13154 12.4825 6.18945 13.4246 6.18945 14.5868V14.5946C6.18945 15.7567 7.13154 16.6988 8.29367 16.6988H8.3015C9.46362 16.6988 10.4057 15.7567 10.4057 14.5946V14.5868C10.4057 13.4246 9.46362 12.4825 8.3015 12.4825Z" fill="white"/>
<path d="M13.2339 12.4825H13.226C12.0639 12.4825 11.1218 13.4246 11.1218 14.5868V14.5946C11.1218 15.7567 12.0639 16.6988 13.226 16.6988H13.2339C14.396 16.6988 15.3381 15.7567 15.3381 14.5946V14.5868C15.3381 13.4246 14.396 12.4825 13.2339 12.4825Z" fill="white"/>
<path d="M21.6028 12.4825H21.5949C20.4328 12.4825 19.4907 13.4246 19.4907 14.5868V14.5946C19.4907 15.7567 20.4328 16.6988 21.5949 16.6988H21.6028C22.7649 16.6988 23.707 15.7567 23.707 14.5946V14.5868C23.707 13.4246 22.7649 12.4825 21.6028 12.4825Z" fill="white"/>
</svg>
