<svg width="20" height="20" viewBox="0 0 20 20" fill="none" xmlns="http://www.w3.org/2000/svg">
<path d="M10 12C12.2091 12 14 10.2091 14 8C14 5.79086 12.2091 4 10 4C7.79086 4 6 5.79086 6 8C6 10.2091 7.79086 12 10 12Z" fill="white"/>
<path d="M12.976 10.65C12.604 11.0731 12.1462 11.4123 11.6331 11.645C11.1201 11.8778 10.5634 11.9988 9.99996 12C9.43673 11.9986 8.88022 11.8776 8.36732 11.6448C7.85442 11.4121 7.39686 11.073 7.02496 10.65C5.83134 11.1276 4.77047 11.886 3.93228 12.8609C3.0941 13.8357 2.50329 14.9983 2.20996 16.25C3.14515 17.418 4.33054 18.3613 5.67876 19.0104C7.02698 19.6594 8.50366 19.9976 9.99996 20C11.4963 19.9976 12.9729 19.6594 14.3212 19.0104C15.6694 18.3613 16.8548 17.418 17.79 16.25C17.4976 14.998 16.9073 13.8351 16.0691 12.8601C15.231 11.8852 14.1699 11.127 12.976 10.65Z" fill="#FFEBD4"/>
<path d="M7.02502 10.65C6.36805 9.92343 6.00297 8.97956 6.00002 8.00001C6.00002 6.93914 6.42145 5.92173 7.17159 5.17158C7.92174 4.42144 8.93915 4.00001 10 4.00001C11.0609 4.00001 12.0783 4.42144 12.8284 5.17158C13.5786 5.92173 14 6.93914 14 8.00001C13.9973 8.97943 13.6326 9.92328 12.976 10.65C14.1661 11.1257 15.2242 11.881 16.0609 12.8518C16.8976 13.8227 17.4882 14.9807 17.783 16.228C19.2065 14.4607 19.9818 12.2593 19.98 9.99001C19.98 4.47801 15.512 0.0100098 10 0.0100098C4.48802 0.0100098 0.0200195 4.47801 0.0200195 9.99001C0.0200195 12.352 0.84502 14.519 2.21702 16.228C2.51275 14.981 3.1039 13.8233 3.94065 12.8526C4.7774 11.8818 5.83524 11.1264 7.02502 10.65Z" fill="#F4942A"/>
</svg>
