<svg width="133" height="35" viewBox="0 0 133 35" fill="none" xmlns="http://www.w3.org/2000/svg">
<path fill-rule="evenodd" clip-rule="evenodd" d="M14.8404 18.5011C14.8404 21.0946 13.1146 23.1786 7.71775 23.1786C4.37846 23.1786 0.0347951 22.7482 0 18.4025H4.18268C4.22319 20.3129 6.10316 20.6421 7.71775 20.6421C9.46322 20.6421 10.6546 20.1146 10.6546 18.9062C10.6546 17.8354 9.80961 17.5443 8.3316 17.3101L4.93051 16.7842C2.55354 16.4076 0.248239 15.6918 0.248239 12.8457C0.248239 9.7389 2.74465 8.47827 7.04886 8.47827C9.86362 8.47827 14.051 8.96248 14.3023 12.901H10.1737C9.94567 11.0897 8.23552 10.8951 6.73674 10.8951C5.20212 10.8951 4.20189 11.5966 4.20189 12.5323C4.20189 13.2697 4.81782 13.6827 5.77702 13.8415L10.4427 14.5984C12.9417 15.0077 14.8404 15.9651 14.8404 18.5011Z" fill="#3C66A4"/>
<path fill-rule="evenodd" clip-rule="evenodd" d="M32.6208 22.7588L26.7081 8.89844H22.2971L16.3804 22.7588H20.3191L21.4141 19.9025H27.5891L28.6846 22.7588H32.6208ZM26.6113 17.3818H22.3939L24.5034 11.8871L26.6113 17.3818Z" fill="#3C66A4"/>
<mask id="mask0_464_14003" style="mask-type:luminance" maskUnits="userSpaceOnUse" x="114" y="0" width="19" height="18">
<path fill-rule="evenodd" clip-rule="evenodd" d="M114.528 0.378906H132.636V17.738H114.528V0.378906Z" fill="white"/>
</mask>
<g mask="url(#mask0_464_14003)">
<path fill-rule="evenodd" clip-rule="evenodd" d="M117.083 6.06861L114.528 17.738L132.636 0.378906L117.083 6.06861Z" fill="#3C66A4"/>
</g>
<mask id="mask1_464_14003" style="mask-type:luminance" maskUnits="userSpaceOnUse" x="90" y="6" width="30" height="29">
<path fill-rule="evenodd" clip-rule="evenodd" d="M90.0403 6.05762H119.519V34.0987H90.0403V6.05762Z" fill="white"/>
</mask>
<g mask="url(#mask1_464_14003)">
<path fill-rule="evenodd" clip-rule="evenodd" d="M113.551 34.0086L108.299 24.1932L98.4384 34.0987H90.0403L105.474 18.9143L98.5927 6.05762H104.283L119.519 34.0086H113.551Z" fill="#0EBCE3"/>
</g>
<path fill-rule="evenodd" clip-rule="evenodd" d="M31.9208 11.5363H36.994V22.7588H40.7105V11.5363H45.7811V8.89844H31.9208V11.5363Z" fill="#3C66A4"/>
<path fill-rule="evenodd" clip-rule="evenodd" d="M62.9135 12.6636C62.9135 11.2447 62.2797 8.89844 58.4548 8.89844H48.4412V22.7588H52.1862V17.6681H56.836C57.9959 17.6681 58.8249 18.1586 58.8249 20.0969C58.8249 21.5536 58.8448 22.1176 59.1914 22.7588H63.2815C62.6253 22.0598 62.5684 20.4298 62.5684 19.7492C62.5684 18.3923 62.3184 16.2918 60.676 16.0418V16.0008C62.2374 15.439 62.9135 14.3546 62.9135 12.6636ZM58.9398 13.267C58.9398 14.5672 57.9745 15.0362 57.1461 15.0362H52.1862V11.5362H56.9534C57.8586 11.5362 58.9398 11.8875 58.9398 13.267Z" fill="#3C66A4"/>
<mask id="mask2_464_14003" style="mask-type:luminance" maskUnits="userSpaceOnUse" x="0" y="0" width="133" height="35">
<path fill-rule="evenodd" clip-rule="evenodd" d="M0 34.379H132.723V0.638184H0V34.379Z" fill="white"/>
</mask>
<g mask="url(#mask2_464_14003)">
<path fill-rule="evenodd" clip-rule="evenodd" d="M67.2017 22.7588H71.1218V8.89844H67.2017V22.7588Z" fill="#3C66A4"/>
<path fill-rule="evenodd" clip-rule="evenodd" d="M89.2615 8.89844H84.7824L81.7669 13.2052L78.7435 8.89844H74.2649L79.6074 15.6141L73.7817 22.7588H78.4169L81.7669 18.0802L85.1064 22.7588H89.7421L83.917 15.6141L89.2615 8.89844Z" fill="#3C66A4"/>
<path fill-rule="evenodd" clip-rule="evenodd" d="M2.18086 30.0792C2.01089 30.0005 1.86326 29.893 1.738 29.7578C1.61221 29.6221 1.515 29.4646 1.44691 29.2837C1.3783 29.1033 1.34451 28.9118 1.34451 28.7085V28.6952C1.34451 28.492 1.3783 28.3015 1.44691 28.1232C1.515 27.945 1.61013 27.788 1.73124 27.6528C1.85235 27.5171 1.99789 27.4113 2.16786 27.3346C2.33731 27.258 2.52548 27.2197 2.73288 27.2197C2.93559 27.2197 3.12324 27.2591 3.29477 27.3378C3.46682 27.4171 3.61548 27.5241 3.74127 27.6597C3.86706 27.7949 3.96374 27.9529 4.03235 28.1333C4.10045 28.3137 4.13475 28.5058 4.13475 28.7085V28.7224C4.13475 28.9251 4.10045 29.1161 4.03235 29.2938C3.96374 29.4726 3.86914 29.6291 3.74803 29.7647C3.6264 29.8999 3.47982 30.0058 3.30828 30.0824C3.13623 30.1596 2.94911 30.1979 2.74639 30.1979C2.53899 30.1979 2.35031 30.158 2.18086 30.0792ZM3.72157 30.9658C4.02357 30.8375 4.28346 30.6614 4.50177 30.4379C4.72009 30.2144 4.89058 29.9553 5.01429 29.6594C5.13748 29.3641 5.19933 29.047 5.19933 28.7086V28.6953C5.19933 28.3569 5.13852 28.0397 5.01741 27.7444C4.89629 27.4486 4.72632 27.1916 4.50801 26.9723C4.29022 26.7536 4.03084 26.5802 3.73144 26.4514C3.43152 26.3226 3.10301 26.2588 2.74644 26.2588C2.38934 26.2588 2.05979 26.3226 1.7578 26.4514C1.4558 26.5802 1.1959 26.7558 0.977589 26.9793C0.759277 27.2027 0.588265 27.4624 0.465075 27.7577C0.341884 28.0536 0.280029 28.3702 0.280029 28.7086V28.7224C0.280029 29.0608 0.340325 29.3774 0.461956 29.6733C0.583068 29.9686 0.752519 30.2261 0.970832 30.4448C1.18914 30.6635 1.448 30.8375 1.74792 30.9658C2.04732 31.0945 2.37583 31.1589 2.73292 31.1589C3.09002 31.1589 3.41957 31.0945 3.72157 30.9658ZM9.50991 31.1115H10.3962L11.4404 28.0115L12.4852 31.1115H13.3714L14.9516 26.3396H13.8871L12.9281 29.5477L11.89 26.3263H11.0173L9.97928 29.5477L9.02079 26.3396H7.92974L9.50991 31.1115ZM17.8868 31.0775H18.8921V28.0658L21.1335 31.0775H21.9994V26.3396H20.9947V29.2571L18.8261 26.3396H17.8868V31.0775ZM28.552 31.0775H29.5697V27.3006H30.9783V26.3396H27.1433V27.3006H28.552V31.0775ZM33.9401 31.0775H34.9584V29.1757H36.8364V31.0775H37.8546V26.3396H36.8364V28.2148H34.9584V26.3396H33.9401V31.0775ZM41.147 31.0775H44.6645V30.1505H42.1523V29.1555H44.3339V28.2281H42.1523V27.2671H44.6317V26.3396H41.147V31.0775ZM50.4695 31.0775H51.4747V28.0046L52.7638 30.0079H52.7903L54.0929 27.9844V31.0775H55.0977V26.3396H54.0004L52.7836 28.343L51.5673 26.3396H50.4695V31.0775ZM59.8185 29.0943L60.4334 27.5581L61.0483 29.0943H59.8185ZM57.994 31.0775H59.032L59.4551 30.0149H61.4122L61.8353 31.0775H62.8998L60.9163 26.3061H59.9775L57.994 31.0775ZM66.8138 28.641V27.2804H67.8253C68.0769 27.2804 68.2728 27.3368 68.4137 27.4496C68.5551 27.5624 68.6252 27.7316 68.6252 27.9572V27.9711C68.6252 28.1738 68.5582 28.3366 68.4236 28.4585C68.2894 28.5803 68.0966 28.641 67.845 28.641H66.8138ZM65.7955 31.0775H66.8138V29.5615H67.6007H67.6137L68.6055 31.0775H69.7958L68.6653 29.3854C68.9605 29.2726 69.1996 29.0954 69.3826 28.8543C69.5655 28.6128 69.657 28.3004 69.657 27.9168V27.9029C69.657 27.4523 69.5245 27.091 69.2599 26.8201C68.947 26.4998 68.4974 26.3396 67.9116 26.3396H65.7955V31.0775ZM72.7576 31.0775H73.7759V29.6291L74.3113 29.0608L75.7464 31.0775H76.9695L74.999 28.3499L76.8837 26.3396H75.6539L73.7759 28.4111V26.3396H72.7576V31.0775ZM79.766 31.0775H83.2839V30.1505H80.7713V29.1555H82.9528V28.2281H80.7713V27.2671H83.2507V26.3396H79.766V31.0775ZM87.4557 31.0775H88.474V27.3006H89.8821V26.3396H86.0471V27.3006H87.4557V31.0775Z" fill="#3C66A4"/>
</g>
</svg>
